 <svg xmlns="http://www.w3.org/2000/svg" viewBox="0 0 1000 28" data-position="bottom" data-ct="37423" decoration-type="Liquid" class="svg-shape-bottom" width="100%" preserveAspectRatio="xMidYMin slice" data-css="tve-u-171ef14fbbd">
                                <defs>
                                    <style></style>
                                </defs>
                                <g id="Layer_2" data-name="Layer 2">
                                    <g id="Layer_1-2" data-name="Layer 1">
                                        <path class="p171ef14fb8f" d="M320.53,15.26c1.44.27,7,1.91,10.32,1.47,1.24-.16,2.18-.62,2.47-1.54a2.53,2.53,0,0,0-.29-1.84c-1.6-3.21-5.19-4.06-8.09-4.09-3.12,0-6.21.64-9.34.48-1-.05-4.78-.71-5,1C310.2,13.86,319.08,15,320.53,15.26Z"></path>
                                        <path class="p171ef14fb8f" d="M339.33,17a6.49,6.49,0,0,0,2.55.48.75.75,0,0,0,.62-.57,1.26,1.26,0,0,0-.07-.67,2,2,0,0,0-2-1.44c-.77,0-1.54.27-2.32.23-.23,0-1.18-.24-1.24.4C336.77,16.58,339,16.94,339.33,17Z"></path>
                                        <path class="p171ef14fb8f" d="M981.74,12.08a67.41,67.41,0,0,0-29.62,4.34c-9.41,3.75-26,6.87-51.4.44-6-1.53.44-6.91-5.15-10-2.83-1.59-16.6-6.76-48.6-1A236.26,236.26,0,0,1,808.8,9.61c-15.2.22-30.37-.67-45.56-.68q-23.34,0-46.6,1.91c-8.08.66-16.21,1.72-24.35,1.19-8-.52-15.77-2-23.55-3.42A176.71,176.71,0,0,0,649.06,5.9c-3.78-.24-20.68-2-20.6,3.56,0,.95.89,1.75,1.14,2.68a2.91,2.91,0,0,1-1.26,2.91c-2.89,2.24-8.78,2.22-12.48,2.27-4.61.06-9.21-.32-13.82-.35-6.31,0-12.66,0-19-.1q-23.22-.5-46.35-2.37Q518.28,13,500,10.69C442,3.32,353,23,333,21.32S274,5.78,248,5c-10.67-.34-20.12,3-30.29,5.26-17.43,3.95-38.6,10.12-56.67,5.66-7.62-1.89-15-6-22.93-4.33a2.88,2.88,0,0,0-2.37,1.95c-.32,1.4,1.12,2.21,2.51,2.55l.18.05c1.93.44,1.63,2.74-.37,2.84-9,.47-18.09.54-27.13.52-6.7,0-13.4-.08-20.11-.09-3.75,0-12.91,1.17-15.52-1.81S84.84,11,87.2,9.42C97.18,2.82,72.92,1.79,69,1.5,46.13-.2,23,0,0,.05V28H1000V10.72C998.73,12.86,990.39,12.7,981.74,12.08Z"></path>
                                        <path class="p171ef14fb8f" d="M617.13,12.71s4.08-.38,4.63-1.82-2.91-1.81-6.93-.74c0,0-6.12.58-4.64,1.83S617.13,12.71,617.13,12.71Z"></path>
                                        <path class="p171ef14fb8f" d="M604,10.89a3.61,3.61,0,0,0,1.3.53.81.81,0,0,0,1-.41,3,3,0,0,1,1.29-1,.68.68,0,0,0,.27-.23c.27-.47-.33-.64-.68-.66a6.77,6.77,0,0,0-1.8.12l-.23,0c-.44.11-1.47.29-1.58.85C603.46,10.44,603.73,10.72,604,10.89Z"></path>
                                    </g>
                                </g>
                            </svg>
                            <svg xmlns="http://www.w3.org/2000/svg" viewBox="0 0 1000 159.14" data-position="top" data-ct="36495" decoration-type="Clouds" class="svg-shape-top" width="100%" preserveAspectRatio="xMidYMax slice" data-css="tve-u-185bb8021c2">
                                <defs>
                                    <style></style>
                                </defs>
                                <g id="Layer_2" data-name="Layer 2">
                                    <g id="Layer_1-2" data-name="Layer 1">
                                        <path class="p185bb8021c0" d="M0,0V92.07a23.89,23.89,0,0,0,42.88,14.6,32.55,32.55,0,0,0,14.29,3.2,33.39,33.39,0,0,0,17.89-5.2,23.08,23.08,0,0,0,41.78-6.8,23,23,0,0,0,8.8,1.7c.1,1.4,0,2.8,0,4.1a23.07,23.07,0,0,0,45,7.39,23.07,23.07,0,0,0,16.3,6.8,20.66,20.66,0,0,0,5-.6,37,37,0,0,0,20,5.7,39,39,0,0,0,28.89-12.8,59,59,0,0,0,106-22.78,44.06,44.06,0,0,0,20.59-2.5A49.55,49.55,0,0,0,446.48,99a38.91,38.91,0,0,0,18.09,4.3,40,40,0,0,0,40-40,45.46,45.46,0,0,0,21.79-7.8,60.91,60.91,0,0,0,42.48,24.09A70.07,70.07,0,0,0,627.69,112a71.2,71.2,0,0,0,12.29-1.1,41.16,41.16,0,0,0,72.16,13.2,57.19,57.19,0,0,0,55.48-3.4,39.74,39.74,0,0,0,71.86-11.59,40.43,40.43,0,0,0,15.09,3,57.63,57.63,0,0,1,0,7.2A39.75,39.75,0,0,0,932,132a39.51,39.51,0,0,0,28.09,11.6,40.94,40.94,0,0,0,39.88-32.9V0Z"></path>
                                    </g>
                                </g>
                            </svg>