
        <svg version="1.1" id='shape'  xmlns="http://www.w3.org/2000/svg" xmlns:xlink="http://www.w3.org/1999/xlink" fill="white" x="0px" y="0px" viewBox="0 0 1000 139" style="" xml:space="preserve" data-position="bottom" data-ct="37593" decoration-type="Ice Cream Melt" class="svg-shape-bottom" width="100%" preserveAspectRatio="xMidYMax slice" data-css="tve-u-171eaba456f">
            <style type="text/css">
                .p171eaba452c{opacity:0.2;enable-background:new    ;}
                .p171eaba452d{opacity:0.8;enable-background:new    ;}
            </style>
            <path class="p171eaba452c" d="M662.2,0.4H507.9v0H338.8H0.5v67.4c0,0,21,5.9,17.9-12.9C14,28.7,52.5,17.3,56.6,55
                c2.3,20.5-4.4,42.9,15.3,41.2c19.7-1.8-4.3-51.1,23.2-48.6c27.5,2.5,4.3,41.8,27.1,39.6c22.9-2.2,0.6-54.2,23.9-53.2
                c28.1,1.1-2.8,82.2,29.7,83.7c32,1.4,1.6-54.8,30.5-55.5c26.5-0.7,2.9,36.8,33.2,36.8c26.5,0,10.1-36.8,29.3-37.2
                s1.3,41.1,25.1,42.2c23.8,1.1,2-36.5,23.5-37.6s-7.1,71.9,21.3,71.2c28.4,0.7-0.2-72.3,21.3-71.2c21.5,1.1-0.3,38.6,23.5,37.6
                c23.8-1.1,5.9-42.6,25.1-42.2c19.2,0.4,2.7,37.1,29.3,37.1c30.3,0,6.7-37.5,33.2-36.8c25.6,0.6,4.6,44.9,21.8,53.9v0
                c1.8,0.9,3.8,1.5,6.2,1.6c2.2,0.1,4.1-0.1,5.8-0.5c0,0,0.1,0,0.1,0c22.2-5.7-2.2-54.3,24.6-55C556.3,61.5,532.7,99,563,99
                c26.5,0,10-36.8,29.3-37.2c19.2-0.4,1.3,41.1,25.1,42.2c23.8,1.1,2-36.5,23.5-37.6c21.5-1.1-7.1,71.9,21.3,71.2
                c28.4,0.7-0.2-72.3,21.3-71.2c21.5,1.1-0.3,38.6,23.5,37.6c23.8-1.1,5.9-42.6,25.1-42.2S735,99,761.6,99c30.3,0,6.7-37.5,33.2-36.8
                c28.8,0.7-1.6,56.9,30.5,55.5c32.5-1.4,1.6-82.6,29.7-83.7c23.3-0.9,1,51.1,23.9,53.2s-0.3-37.1,27.1-39.6
                c27.5-2.5,3.5,46.8,23.2,48.6c19.7,1.8,13-20.7,15.3-41.2c4.1-37.7,42.6-26.3,38.2,0c-3.1,18.8,17.9,12.9,17.9,12.9V0.4H662.2z"></path>
            <path class="p171eaba452d" d="M662.2-0.1H507.9v0H338.8H0.5v65.3c0,0,21,5.9,17.9-12.9c-4.4-26.3,34.1-37.7,38.2,0
                c2.3,20.5-4.4,42.9,15.3,41.2c19.7-1.8-4.3-51.1,23.2-48.6c27.5,2.5,4.3,41.8,27.1,39.6s0.6-54.2,23.9-53.2
                c28.1,1.1-2.8,82.2,29.7,83.7c32,1.4,1.6-54.8,30.5-55.5c26.5-0.7,2.9,36.8,33.2,36.8c26.5,0,10.1-36.8,29.3-37.2
                s1.3,41.1,25.1,42.2c23.8,1.1,2-36.5,23.5-37.6c21.5-1.1-7.1,71.9,21.3,71.2c28.4,0.7-0.2-72.3,21.3-71.2
                c21.5,1.1-0.3,38.6,23.5,37.6c23.8-1.1,5.9-42.6,25.1-42.2c19.2,0.4,2.7,37.2,29.3,37.2c30.3,0,6.7-37.5,33.2-36.8
                c25.6,0.6,4.6,44.9,21.8,53.9v0c1.8,0.9,3.8,1.5,6.2,1.6c2.2,0.1,4.1-0.1,5.8-0.5c0,0,0.1,0,0.1,0c22.2-5.7-2.2-54.3,24.6-55
                c26.5-0.7,2.9,36.8,33.2,36.8c26.5,0,10-36.8,29.3-37.2c19.2-0.4,1.3,41.1,25.1,42.2c23.8,1.1,2-36.5,23.5-37.6
                c21.5-1.1-7.1,71.9,21.3,71.2c28.4,0.7-0.2-72.3,21.3-71.2c21.5,1.1-0.3,38.6,23.5,37.6c23.8-1.1,5.9-42.6,25.1-42.2
                c19.2,0.4,2.7,37.2,29.2,37.2c30.3,0,6.7-37.5,33.2-36.8c28.8,0.7-1.6,56.9,30.5,55.5c32.5-1.4,1.6-82.6,29.7-83.7
                c23.3-0.9,1,51.1,23.9,53.2c22.9,2.1-0.3-37.1,27.1-39.6c27.5-2.5,3.5,46.8,23.2,48.6c19.7,1.8,13-20.7,15.3-41.2
                c4.1-37.7,42.6-26.3,38.2,0c-3.1,18.8,17.9,12.9,17.9,12.9V-0.1H662.2z"></path>
            <path class="p171eaba452e" d="M999.7,20.9V-0.5H-0.7v29.3h0.4V62c0,0,21,5.9,17.9-12.9c-1.3-7.5,1-13.8,5-18.1c-0.4,0.2-0.8,0.5-1.1,0.7
                c-2,1.4-4,2.9-5.4,4.7c-0.8,1-1.3,3.1-2.6,3.7c-0.5,0.2-0.7-0.6-0.7-0.8c-0.5-4,2.5-7.7,6.8-10.4h27.1c4.6,3.7,8.1,10.3,9.2,20.4
                c2.3,20.5-4.4,42.9,15.3,41.2c19.4-1.8-3.4-49.4,21.9-48.7c-0.4-0.1-0.9-0.2-1.3-0.3c-0.3-0.1-0.2-0.6-0.1-0.7
                c2-1.5,3.6-1.9,6.4-1.7c2.3,0.2,4.3,1,5.3,2.7c0.1,0.2,0.3,1-0.1,1.1c-1.6,0.4-4-0.5-5.7-0.7c-0.2,0-0.5,0-0.8,0
                c23.8,4.5,2.6,41.4,24.8,39.3c21.1-2,3.7-46.5,19.3-52.6h8.2c21.7,7.9-4.8,81.6,26.1,83c32,1.4,1.6-54.8,30.5-55.5
                c26.5-0.7,2.9,36.8,33.2,36.8c21.7,0,14.6-24.6,21.8-33.8c-0.9,0.3-1.8,0.6-2.7,1c-0.5,0.2-1.1,0.1-1.7,0.2
                c-0.5,0.1-0.3-1.4-0.2-1.6c1.3-1.9,2.8-2.7,5.3-3.5c2.2-0.7,4.3-0.9,6.4,0c0.1,0.1,0.2,0.3,0.2,0.5c0,0,0,0,0,0
                c19.2-0.4,1.3,41.1,25.1,42.2c23.8,1.1,2-36.5,23.5-37.6c21.5-1.1-7.1,71.9,21.3,71.2c28.4,0.7-0.2-72.3,21.3-71.2
                c21.5,1.1-0.3,38.6,23.5,37.6c23.8-1.1,5.9-42.6,25.1-42.2c0,0,0,0,0,0c0-0.3,0.1-0.5,0.2-0.5c2.2-0.9,4.2-0.7,6.4,0
                c2.5,0.8,4,1.7,5.3,3.5c0.1,0.2,0.3,1.6-0.2,1.6c-0.5-0.1-1.2,0-1.7-0.2c-0.9-0.4-1.8-0.7-2.7-1c7.2,9.2,0.1,33.8,21.8,33.8
                c30.3,0,6.7-37.5,33.2-36.8c25.6,0.6,4.6,44.9,21.8,53.9v0c1.8,0.9,3.8,1.5,6.2,1.6c2.2,0.1,4.1-0.1,5.8-0.5c0,0,0.1,0,0.1,0
                c22.2-5.7-2.2-54.3,24.6-55c26.5-0.7,2.9,36.8,33.2,36.8c21.7,0,14.6-24.6,21.8-33.8c-0.9,0.3-1.8,0.7-2.7,1
                c-0.5,0.2-1.1,0.1-1.7,0.2c-0.5,0.1-0.3-1.4-0.2-1.6c1.3-1.9,2.8-2.7,5.3-3.5c2.2-0.7,4.3-0.9,6.4,0c0.2,0.1,0.2,0.3,0.2,0.5
                c0,0,0,0,0,0c19.2-0.4,1.3,41.1,25.1,42.2c23.8,1.1,2-36.5,23.5-37.6c21.5-1.1-7.1,72,21.3,71.2c28.4,0.7-0.2-72.3,21.3-71.2
                c21.5,1.1-0.3,38.6,23.5,37.6c23.8-1.1,5.9-42.6,25.1-42.2c0,0,0,0,0,0c0-0.3,0.1-0.5,0.2-0.5c2.2-0.9,4.2-0.7,6.4,0
                c2.5,0.8,4,1.7,5.3,3.5c0.1,0.2,0.3,1.6-0.2,1.6c-0.5-0.1-1.2,0-1.7-0.2c-0.9-0.4-1.8-0.7-2.7-1c7.2,9.2,0.1,33.8,21.8,33.8
                c30.3,0,6.7-37.5,33.2-36.8c28.8,0.7-1.6,56.9,30.5,55.5c31-1.4,4.3-75.3,26.2-83h8c15.7,6-1.8,50.6,19.4,52.6
                c22.2,2.1,1-34.8,24.8-39.3c-0.3,0-0.5,0-0.8,0c-1.7,0.1-4.1,1.1-5.7,0.7c-0.4-0.1-0.2-0.9-0.1-1.1c1-1.7,3-2.5,5.3-2.7
                c2.8-0.3,4.4,0.2,6.4,1.7c0.2,0.1,0.2,0.7-0.1,0.7c-0.4,0.1-0.9,0.2-1.3,0.3c25.3-0.8,2.5,46.9,21.9,48.7
                c19.7,1.8,13-20.7,15.3-41.2c1.1-10.1,4.7-16.7,9.3-20.4h27c4.3,2.7,7.3,6.4,6.8,10.5c0,0.2-0.2,1.1-0.7,0.8
                c-1.3-0.6-1.9-2.7-2.6-3.7c-1.4-1.8-3.4-3.3-5.4-4.7c-0.4-0.3-0.7-0.5-1.1-0.7c4,4.3,6.2,10.6,5,18.1C978.8,68,999.9,62,999.9,62
                V20.9C999.9,20.9,999.8,20.9,999.7,20.9z M12.5,59.3c-0.7,0.6-1,1.4-2.3,1.4c-0.7,0-1.4-0.1-2-0.4C7.4,60,7,59.5,6.6,58.8
                c-0.2-0.4-0.3-0.8-0.4-1.3c0-0.1-0.1-0.2-0.1-0.3v0c0-0.1,0-0.2,0-0.3c0,0,0,0,0,0c0,0,0,0,0-0.1c0-0.1,0-0.1,0-0.2
                c0-0.1,0-0.1,0-0.1c0-0.5,0.3-1.1,0.8-0.9c0.4,0.1,0.8,0.2,1.1,0.4c0.5,0.2,0.8,0.6,1.3,0.7c0.5,0.2,1.1,0.1,1.6,0.2
                c0.3,0.1,0.5,0.2,0.8,0.3c0.2,0.1,0.4,0.3,0.6,0.4C12.9,57.8,12.8,59.1,12.5,59.3z M67.1,89.7c-4.1,0.1-5.7-4.2-6.4-6.8
                c-1.1-4.1-1.4-8.2-1.4-12.4c0.1-10.1,1-20.2,0.4-30.3c0-0.5,0.7-2.7,1.3-1.2c1.9,4.8,1.4,10.2,1.1,15.1c-0.2,4.4-0.1,8.9-0.1,13.3
                c-0.1,3.6-0.2,7.2,0.6,10.8c0.7,3.3,2.6,6.2,4.8,9C67.8,87.6,68.3,89.7,67.1,89.7z M125.3,79.3c-0.5,0.7-1.1,1.3-2.1,1.4
                c-0.8,0.1-1.3-0.1-2-0.4c-0.6-0.3-0.6-1.2-0.6-1.7c0-0.4,0-1.4,0.5-1.7c0.6-0.3,1.2-0.5,1.9-0.4c1,0.1,1.6,0.7,2.1,1.4
                C125.6,78.2,125.6,78.9,125.3,79.3z M167.7,106.9c-4.3-1.6-5.1-8.4-5.6-11.7c-0.7-4.9-0.7-9.9-0.6-14.8c0.4-11,0-21.9-0.1-32.8
                c0-0.2,0.2-0.7,0.4-0.3c2.6,4.5,2.7,9.9,2.8,14.9c0.1,5.1,0.1,10.2,0,15.4c-0.1,4.6-0.2,9.2,0.3,13.8c0.5,4.6,2.5,8.6,3.9,13
                C169,104.7,169.2,107.4,167.7,106.9z M178.9,107.6c-0.6,0-0.4-1.3-0.2-1.6c1.4-1.6,3.3-3.1,4.3-4.8c1-1.7,1.1-3.5,1.9-5.2
                c0.1-0.2,0.4-0.3,0.5,0C186.7,99.4,184.7,107.7,178.9,107.6z M187.5,75.2c-0.4,2-0.1,4.4-1,6.4c-0.1,0.2-0.3,0.4-0.4,0.1
                c-1.5-1.6-0.8-4.5-0.5-6.3c0.3-2.2,0.8-4.5,1.5-6.7c0.1-0.3,0.4-0.1,0.4,0.1C188,70.9,187.8,73.1,187.5,75.2z M235.5,91
                c-2.3,1.3-5.7-2.8-6.5-3.9c-1.4-2-2.4-4.5-1.5-6.8c0.1-0.3,0.5-0.5,0.8-0.2c0.8,0.9,1,2,1.6,2.9c0.9,1.3,2.3,2.4,3.8,3.4
                C235.1,87.1,237.8,89.7,235.5,91z M246.6,87.1C246.6,87.1,246.6,87.1,246.6,87.1c-0.1,0.4-0.2,0.9-0.6,1c-0.2,0.1-0.4,0.1-0.5,0.2
                c-0.3,0.1-0.5,0-0.8-0.1c-0.2-0.1-0.3-0.2-0.4-0.3c-0.1,0-0.2,0-0.2-0.1c-0.4-0.2-0.5-0.8-0.5-1.1c0-0.3,0-0.9,0.4-1.1
                c0,0,0.1,0,0.2-0.1c0.1-0.1,0.2-0.3,0.4-0.4c0.1-0.1,0.4-0.2,0.5-0.2c0.2,0,0.4,0,0.5,0c0.4,0,0.4,0.3,0.6,0.4
                c0.3,0.1,0.4,0.5,0.4,0.7C246.8,86.4,246.7,86.8,246.6,87.1z M288.7,93c-0.1,0-0.3,0.1-0.4,0.1c-0.3,0-0.5-0.2-0.7-0.4
                c-0.5-0.5-0.7-1-1-1.6c-0.3-0.6-0.2-1.4,0.1-2c0.2-0.4,0.6-0.7,1-0.3c0.4,0.4,0.6,0.7,0.8,1.2c0.1,0.3,0.3,0.5,0.3,0.8
                c0,0.2,0.1,0.4,0.1,0.5C289.1,91.7,289.4,92.9,288.7,93z M301.7,85.3c-0.6,2.7-1.3,5.5-3.1,7.9c-0.6,0.8-1.3,1.7-2.3,2.3
                c-1.1,0.6-1.8,0.3-3,0.1c-0.8-0.1-1-2-0.2-2.3c2.1-0.6,4.1-2.8,4.9-4.5c1.2-2.5,1.8-5.3,2.3-8c0.7-4.1,0.3-8.7,2.2-12.6
                c0.2-0.5,0.5,0.2,0.5,0.4C303.2,74.3,302.9,79.8,301.7,85.3z M333.2,130.7c-2.9-6.4-3.2-13.4-3.5-20.1c-0.3-7.6,0-15.1,0.2-22.7
                c0-0.8,0.8-1.4,0.9-0.3c0.7,6.7,0.8,13.3,1,20c0.3,7.4,1.2,14.8,2.1,22.1C334,130.1,333.6,131.5,333.2,130.7z M346.3,110.6
                c-0.3,6.7-0.6,13.7-3.5,20.1c-0.4,0.8-0.8-0.6-0.8-0.9c0.9-7.4,1.9-14.7,2.1-22.1c0.2-6.7,0.4-13.3,1-20c0.1-1.1,0.8-0.5,0.9,0.3
                C346.3,95.5,346.6,103.1,346.3,110.6z M382.7,95.7c-1.2,0.2-1.9,0.5-3-0.1c-1-0.6-1.7-1.4-2.3-2.3c-1.7-2.4-2.5-5.2-3.1-7.9
                c-1.2-5.5-1.5-11-1.3-16.6c0-0.2,0.3-0.8,0.5-0.4c2,3.9,1.6,8.5,2.2,12.6c0.4,2.7,1,5.4,2.3,8c0.8,1.6,2.7,3.8,4.9,4.5
                C383.6,93.6,383.5,95.6,382.7,95.7z M389.5,91.1c-0.3,0.6-0.4,1.1-1,1.6c-0.2,0.2-0.4,0.4-0.7,0.4c-0.1,0-0.3-0.1-0.4-0.1
                c-0.7-0.1-0.5-1.3-0.3-1.7c0-0.1,0.1-0.3,0.1-0.5c0.1-0.3,0.2-0.5,0.3-0.8c0.2-0.5,0.5-0.8,0.8-1.2c0.4-0.4,0.9-0.1,1,0.3
                C389.7,89.7,389.8,90.5,389.5,91.1z M431.9,87.8c0,0-0.1,0-0.2,0.1c-0.1,0.1-0.2,0.3-0.4,0.3c-0.3,0.1-0.5,0.2-0.8,0.1
                c-0.2-0.1-0.4-0.1-0.5-0.2c-0.4-0.2-0.5-0.6-0.6-1c0,0,0,0,0,0c-0.1-0.3-0.2-0.6-0.1-0.9c0-0.2,0.1-0.6,0.4-0.7
                c0.2-0.1,0.2-0.5,0.6-0.4c0.2,0,0.4,0,0.5,0s0.4,0.2,0.5,0.2c0.2,0.1,0.3,0.2,0.4,0.4c0.1,0,0.2,0,0.2,0.1c0.4,0.1,0.4,0.8,0.4,1.1
                C432.4,87,432.3,87.7,431.9,87.8z M447,87c-0.8,1.2-4.2,5.2-6.5,3.9c-2.3-1.2,0.5-3.8,1.8-4.6c1.5-0.9,2.9-2,3.8-3.4
                c0.6-0.9,0.8-2,1.6-2.9c0.3-0.3,0.7-0.1,0.8,0.2C449.4,82.5,448.4,85,447,87z M489.5,81.6c-0.8-2-0.6-4.3-1-6.4
                c-0.4-2.1-0.5-4.3,0-6.4c0-0.2,0.3-0.5,0.4-0.1c0.7,2.2,1.2,4.5,1.5,6.7c0.3,1.8,1,4.7-0.5,6.3C489.8,82,489.6,81.8,489.5,81.6z
                 M492.3,105.1c-2-2.7-2.5-6.9-1.7-9.1c0.1-0.3,0.3-0.2,0.5,0c0.6,1.1,0.8,2.3,1.2,3.5V105.1z M559,91c-2.3,1.3-5.7-2.8-6.5-3.9
                c-1.4-2-2.4-4.5-1.5-6.8c0.1-0.3,0.5-0.5,0.8-0.2c0.8,0.9,1,2,1.6,2.9c0.9,1.3,2.3,2.5,3.8,3.4C558.5,87.2,561.3,89.8,559,91z
                 M570.1,87.1C570.1,87.1,570,87.1,570.1,87.1c-0.1,0.4-0.2,0.9-0.6,1c-0.2,0.1-0.3,0.1-0.5,0.2c-0.3,0.1-0.5,0-0.8-0.1
                c-0.2-0.1-0.3-0.2-0.4-0.3c-0.1,0-0.2,0-0.2-0.1c-0.4-0.2-0.5-0.8-0.5-1.1c0-0.3,0-0.9,0.4-1.1c0,0,0.1,0,0.2-0.1
                c0.1-0.1,0.2-0.3,0.4-0.4c0.2-0.1,0.4-0.2,0.5-0.2c0.2,0,0.4,0,0.5,0c0.4,0,0.4,0.3,0.6,0.4c0.3,0.1,0.3,0.5,0.4,0.7
                C570.2,86.5,570.2,86.8,570.1,87.1z M612.1,93c-0.2,0-0.3,0.1-0.4,0.1c-0.3,0-0.5-0.2-0.7-0.4c-0.5-0.5-0.7-1-1-1.6
                c-0.3-0.6-0.2-1.4,0.1-2c0.2-0.4,0.6-0.7,1-0.3c0.4,0.4,0.6,0.7,0.8,1.2c0.1,0.3,0.3,0.5,0.3,0.8c0,0.2,0.1,0.4,0.1,0.5
                C612.6,91.7,612.8,93,612.1,93z M625.2,85.4c-0.6,2.7-1.3,5.5-3.1,7.9c-0.6,0.8-1.3,1.7-2.3,2.3c-1.1,0.6-1.8,0.3-3,0.2
                c-0.8-0.1-1-2-0.2-2.3c2.2-0.7,4.1-2.8,4.9-4.5c1.2-2.5,1.8-5.3,2.3-8c0.7-4.1,0.3-8.7,2.2-12.6c0.2-0.5,0.5,0.2,0.5,0.4
                C626.7,74.3,626.4,79.9,625.2,85.4z M656.7,130.7c-2.9-6.4-3.2-13.4-3.5-20.1c-0.3-7.6,0-15.1,0.2-22.7c0-0.8,0.8-1.4,0.9-0.3
                c0.7,6.7,0.8,13.3,1,20c0.3,7.4,1.2,14.8,2.1,22.1C657.5,130.1,657.1,131.6,656.7,130.7z M669.7,110.7c-0.3,6.7-0.6,13.7-3.5,20.1
                c-0.4,0.9-0.8-0.6-0.8-0.9c0.9-7.4,1.9-14.7,2.1-22.1c0.2-6.7,0.4-13.3,1-20c0.1-1.1,0.8-0.5,0.9,0.3
                C669.7,95.6,670,103.1,669.7,110.7z M706.1,95.7c-1.2,0.2-1.9,0.5-3-0.2c-1-0.6-1.7-1.4-2.3-2.3c-1.7-2.4-2.5-5.2-3.1-7.9
                c-1.2-5.5-1.5-11-1.3-16.6c0-0.2,0.3-0.8,0.5-0.4c2,3.9,1.6,8.5,2.2,12.6c0.4,2.7,1,5.4,2.3,8c0.8,1.6,2.7,3.8,4.9,4.5
                C707.1,93.7,706.9,95.6,706.1,95.7z M713,91.2c-0.3,0.6-0.4,1.1-1,1.6c-0.2,0.2-0.4,0.3-0.7,0.4c-0.1,0-0.3-0.1-0.4-0.1
                c-0.7-0.1-0.5-1.3-0.3-1.7c0-0.1,0.1-0.3,0.1-0.5c0.1-0.3,0.2-0.5,0.3-0.8c0.2-0.5,0.5-0.8,0.8-1.2c0.4-0.4,0.8-0.1,1,0.3
                C713.2,89.8,713.2,90.6,713,91.2z M755.4,87.8c0,0-0.1,0-0.2,0.1c-0.1,0.2-0.2,0.3-0.4,0.3c-0.3,0.1-0.5,0.2-0.8,0.1
                c-0.2,0-0.4-0.1-0.5-0.2c-0.4-0.2-0.5-0.6-0.6-1c0,0,0,0,0,0c-0.1-0.3-0.2-0.6-0.1-1c0-0.2,0.1-0.5,0.4-0.7c0.2-0.1,0.2-0.5,0.6-0.4
                c0.2,0,0.4,0,0.5,0s0.4,0.1,0.5,0.2c0.2,0.1,0.3,0.2,0.4,0.4c0.1,0,0.2,0.1,0.2,0.1c0.4,0.2,0.4,0.8,0.4,1.1
                C755.9,87.1,755.8,87.7,755.4,87.8z M770.4,87.1c-0.8,1.1-4.2,5.2-6.5,3.9c-2.3-1.2,0.5-3.8,1.8-4.7c1.5-0.9,2.8-2,3.8-3.4
                c0.6-0.9,0.8-2,1.6-2.9c0.3-0.3,0.7-0.1,0.8,0.2C772.8,82.5,771.9,85,770.4,87.1z M813,81.6c-0.8-2-0.6-4.3-1-6.4
                c-0.4-2.1-0.5-4.3,0-6.4c0-0.2,0.3-0.5,0.4-0.1c0.7,2.2,1.2,4.5,1.5,6.7c0.3,1.8,1,4.7-0.5,6.3C813.2,82,813.1,81.8,813,81.6z
                 M820.5,107.6c-5.8,0.1-7.7-8.3-6.5-11.6c0.1-0.3,0.3-0.2,0.5,0c0.9,1.7,1,3.5,1.9,5.2c1,1.8,2.9,3.2,4.3,4.8
                C821,106.3,821.1,107.6,820.5,107.6z M837.9,80.4c0.2,5,0.2,9.9-0.6,14.8c-0.5,3.3-1.2,10.2-5.6,11.7c-1.5,0.5-1.3-2.3-1.1-2.7
                c1.4-4.4,3.4-8.4,3.8-13c0.5-4.6,0.3-9.2,0.3-13.8c-0.1-5.1-0.1-10.2,0-15.4c0.1-4.9,0.2-10.3,2.8-14.8c0.2-0.4,0.4,0.2,0.4,0.3
                C837.9,58.5,837.5,69.4,837.9,80.4z M878.8,78.6c0,0.4-0.1,1.4-0.6,1.7c-0.7,0.3-1.2,0.5-2,0.4c-1-0.1-1.6-0.7-2.1-1.4
                c-0.3-0.4-0.3-1.1,0-1.5c0.5-0.6,1.2-1.3,2.2-1.4c0.8-0.1,1.3,0.1,1.9,0.4C878.9,77.2,878.8,78.2,878.8,78.6z M938.7,82.9
                c-0.7,2.6-2.3,6.9-6.4,6.8c-1.1,0-0.6-2.1-0.3-2.5c2.2-2.8,4.1-5.7,4.8-9c0.7-3.5,0.7-7.2,0.6-10.8c-0.1-4.4,0.1-8.9-0.1-13.3
                c-0.2-5-0.7-10.3,1.2-15.2c0.6-1.4,1.3,0.8,1.3,1.2c-0.6,10.1,0.2,20.2,0.4,30.3C940.1,74.7,939.8,78.8,938.7,82.9z M993.4,57
                C993.4,57,993.4,57,993.4,57c0,0.2,0,0.3-0.1,0.3v0c0,0.1,0,0.2-0.1,0.3c-0.1,0.4-0.2,0.9-0.5,1.3c-0.4,0.7-0.8,1.2-1.6,1.6
                c-0.6,0.3-1.3,0.4-2,0.4c-1.3,0-1.6-0.8-2.3-1.4c-0.3-0.3-0.4-1.5,0.2-1.7c0.2-0.1,0.4-0.2,0.6-0.3c0.3-0.1,0.6-0.2,0.8-0.3
                c0.5-0.2,1.1-0.1,1.6-0.2c0.5-0.2,0.8-0.5,1.3-0.7c0.4-0.1,0.7-0.3,1.1-0.4c0.6-0.2,0.8,0.4,0.8,0.9c0,0,0,0,0,0.1
                S993.4,56.9,993.4,57C993.4,57,993.4,57,993.4,57z">
            </path>
            <use xlink:href="#shape" transform="rotate(60, 50, 50)" /> 
        </svg>