 
<svg xmlns="http://www.w3.org/2000/svg" fill="white" viewBox="0 0 1000 159.14" data-position="top" data-ct="36495" decoration-type="Clouds" class="svg-shape-top" width="100%" preserveAspectRatio="xMidYMax slice" data-css="tve-u-185bb8021c2">
    <g id="Layer_2" data-name="Layer 2">
        <g id="Layer_1-2" data-name="Layer 1">
            <path class="p185bb8021c0" d="M0,0V92.07a23.89,23.89,0,0,0,42.88,14.6,32.55,32.55,0,0,0,14.29,3.2,33.39,33.39,0,0,0,17.89-5.2,23.08,23.08,0,0,0,41.78-6.8,23,23,0,0,0,8.8,1.7c.1,1.4,0,2.8,0,4.1a23.07,23.07,0,0,0,45,7.39,23.07,23.07,0,0,0,16.3,6.8,20.66,20.66,0,0,0,5-.6,37,37,0,0,0,20,5.7,39,39,0,0,0,28.89-12.8,59,59,0,0,0,106-22.78,44.06,44.06,0,0,0,20.59-2.5A49.55,49.55,0,0,0,446.48,99a38.91,38.91,0,0,0,18.09,4.3,40,40,0,0,0,40-40,45.46,45.46,0,0,0,21.79-7.8,60.91,60.91,0,0,0,42.48,24.09A70.07,70.07,0,0,0,627.69,112a71.2,71.2,0,0,0,12.29-1.1,41.16,41.16,0,0,0,72.16,13.2,57.19,57.19,0,0,0,55.48-3.4,39.74,39.74,0,0,0,71.86-11.59,40.43,40.43,0,0,0,15.09,3,57.63,57.63,0,0,1,0,7.2A39.75,39.75,0,0,0,932,132a39.51,39.51,0,0,0,28.09,11.6,40.94,40.94,0,0,0,39.88-32.9V0Z"></path>
        </g>
    </g>
</svg>