<svg xmlns="http://www.w3.org/2000/svg" fill="white" viewBox="0 0 1000 23" data-position="bottom" data-ct="37418" decoration-type="Grunge Brush 02" class="svg-shape-bottom" width="100%" preserveAspectRatio="xMidYMin slice" data-css="tve-u-171ebfe8108">
    <style>
    .svg-shape-bottom{
        transform: rotate(180deg);
    }
    </style>
    <g id="Layer_2" data-name="Layer 2">
        <g id="Layer_1-2" data-name="Layer 1">
            <g id="Layer_1-2-2" data-name="Layer 1-2">
                <path class="p171ebfe80c4" d="M134.3,5.28l.7-.62c.3-.92-4.1-.92-4.6-1C131.1,5.18,132.4,5.59,134.3,5.28Z"></path>
                <path class="p171ebfe80c4" d="M82,5.9a43.9,43.9,0,0,1,5.3-.21c2.2.21,3.2,2,4.6,2,2.7.21,4.3-2.47,7.2-2.57-3.5-1.55-7.3,0-11-.11-1,0-4.4-.82-4.9-.72C82.9,4.56,80,5.49,82,5.9Z"></path>
                <path class="p171ebfe80c4" d="M81.5,7.65C80.7,5.28,76.2,6,75.6,5.8,75.7,7.65,80.3,7.86,81.5,7.65Z"></path>
                <path class="p171ebfe80c4" d="M76.1,10.12c.3.21,3.4,1.24,3,.21A3.77,3.77,0,0,0,76.1,10.12Z"></path>
                <path class="p171ebfe80c4" d="M64.1,7.24a6.7,6.7,0,0,0,2,0c-.2-1.44-1-2-2.4-1.44C66.6,5.9,61.7,6.83,64.1,7.24Z"></path>
                <path class="p171ebfe80c4" d="M60.2,5.8c-1.3,0-1.7-.83-2.8.2A4.32,4.32,0,0,0,60.2,5.8Z"></path>
                <path class="p171ebfe80c4" d="M63.5,9.4c1.2-.1-1.4-1.23-1.8-.82C62.5,9,62.3,9.81,63.5,9.4Z"></path>
                <path class="p171ebfe80c4" d="M155.5,3.74a3.78,3.78,0,0,0-3,.31A3.87,3.87,0,0,0,155.5,3.74Z"></path>
                <path class="p171ebfe80c4" d="M140.3,5.39c2.8.3,7.7-.11,10.2-1.76A46.92,46.92,0,0,0,141.2,3c-.5,0-3.4-.11-3.7.41C136.4,4.87,139.7,5.08,140.3,5.39Z"></path>
                <path class="p171ebfe80c4" d="M341.1,5.9c.4-1,4.2-.93,4-2.16-2,.1-4.4-.21-5.6,1.54A1.28,1.28,0,0,0,341.1,5.9Z"></path>
                <path class="p171ebfe80c4" d="M245.8,11l-6.8.82C240.9,11.67,245.7,11.87,245.8,11Z"></path>
                <path class="p171ebfe80c4" d="M280.8,2.71c-1.3,1.13-5.4,0-7.2,1.54,3.3-.31,6.6.21,9.8-1C282.5,3.12,281.7,2.81,280.8,2.71Z"></path>
                <path class="p171ebfe80c4" d="M619.5,10.33l-.7.1A1.7,1.7,0,0,0,619.5,10.33Z"></path>
                <path class="p171ebfe80c4" d="M899.7,16l-11-.11C891.5,17.33,896.5,16.1,899.7,16Z"></path>
                <path class="p171ebfe80c4" d="M587.4,6.52c1.4-1.34-.9-1.65-1.7-1.86C585.6,5.69,586.1,6.83,587.4,6.52Z"></path>
                <path class="p171ebfe80c4" d="M564.4,4.15c2.5.62.3,2.27,3,2,1.2-.11.9-2,2.8-1.76-.9-1-6-1.54-6.9-1.33C560.4,3.74,562.8,5.08,564.4,4.15Z"></path>
                <path class="p171ebfe80c4" d="M558.4,2.91c.1.11.2.11.3.21C558.7,2.91,558.6,2.81,558.4,2.91Z"></path>
                <path class="p171ebfe80c4" d="M561.3,5.8c-.1-1.86-2.7-2.27-2.7-2.27C558.6,4.77,560.3,5.8,561.3,5.8Z"></path>
                <path class="p171ebfe80c4" d="M558.4,7.86c.4.2.7,1,1.3.92S559.3,7.55,558.4,7.86Z"></path>
                <path class="p171ebfe80c4" d="M552.9,4.15l1,.1c-.2-1.44,0-1.23-.7-1.44C553.8,3.12,552,3.63,552.9,4.15Z"></path>
                <path class="p171ebfe80c4" d="M553.3,2.71a.35.35,0,0,0-.3-.11Z"></path>
                <path class="p171ebfe80c4" d="M551.2,2.4a4.17,4.17,0,0,0-.9-.52l-.5.52A1,1,0,0,0,551.2,2.4Z"></path>
                <path class="p171ebfe80c4" d="M552.4,6.31c.6-.1-.5-1.34-.8-.92C551.9,5.8,551.7,6.62,552.4,6.31Z"></path>
                <path class="p171ebfe80c4" d="M597.9,6.31c-.3,0-.6-.62-1.5.11A1,1,0,0,0,597.9,6.31Z"></path>
                <path class="p171ebfe80c4" d="M595.4,5.9c-2.7-1.24-7.8-2.58-5.1,1.13A6.42,6.42,0,0,0,595.4,5.9Z"></path>
                <path class="p171ebfe80c4" d="M799.1,7.55c1.8-1.24-1.8-1.86-2.5-2a2,2,0,0,0,2,2.06C798.8,7.65,798.9,7.55,799.1,7.55Z"></path>
                <path class="p171ebfe80c4" d="M762.9,6.52c-.3-1.75-2.6-2.17-4-2.58C759.1,5.8,761.2,6.62,762.9,6.52Z"></path>
                <path class="p171ebfe80c4" d="M758.5,3.74c.1.1.3.1.5.2C758.9,3.74,758.8,3.63,758.5,3.74Z"></path>
                <path class="p171ebfe80c4" d="M759.8,9.2a2.68,2.68,0,0,0,1.2.31C760.9,9.51,759.1,7.34,759.8,9.2Z"></path>
                <path class="p171ebfe80c4" d="M751.1,5.18l1.4.1c-.6-1.54.1-1.34-1.5-1.54C753,3.94,749.4,4.56,751.1,5.18Z"></path>
                <path class="p171ebfe80c4" d="M748.5,3.53c-1,0-1.2-.93-1.9,0A2.06,2.06,0,0,0,748.5,3.53Z"></path>
                <path class="p171ebfe80c4" d="M750.5,7.34c.9-.1-.8-1.34-1.2-.82C749.9,6.83,749.7,7.65,750.5,7.34Z"></path>
                <path class="p171ebfe80c4" d="M813.7,7.75a1.94,1.94,0,0,0-2.1,0A1.91,1.91,0,0,0,813.7,7.75Z"></path>
                <path class="p171ebfe80c4" d="M803.2,8.06a10.59,10.59,0,0,0,7.1-.92c-1.9-.62-5.1-1.75-7.1-1.34C799.8,6.62,801.5,6.52,803.2,8.06Z"></path>
                <path class="p171ebfe80c4" d="M389.9,2.6a9.16,9.16,0,0,0,1-2.26C390.1.54,388.6,1.88,389.9,2.6Z"></path>
                <path class="p171ebfe80c4" d="M370.7,1.88A3.11,3.11,0,0,0,373.4.75C372.5-.07,371.2.23,370.7,1.88Z"></path>
                <path class="p171ebfe80c4" d="M262.4,5.8c.6-.11-.1-.11-1,0Z"></path>
                <path class="p171ebfe80c4" d="M997.8,13.21a41.56,41.56,0,0,1-7.7-2.47c-.3-.2-1.2-1.44-1.7-1.34-1.5.41-1.3,2.58-2.7,3-2.5.72,0-3-.5-3.91-.2-.42-2.2,3.6-2.9,2.16,0,.2,0,.51-.2.62h1.4c-.1,2-2.1,2.26-2.8,3.91-.6-.93.8-3.4-.8-3.71-.4,1.14-1.8.21-2.4,1.24-1.7.51-.8-4.43-2-3.92.5.42.8,5.15.5,5.67-.9,1.55-3.4,1.55-3.1-1.55.8.52-.4-2-.6-2.26-1.7.82-2.4-1.44-3.8-1.44-1.7,0-2.4,2.57-3.7,2.37a.81.81,0,0,1,.2-.93c-3.2,1.85-7.2,3.4-10.9,2.37a16.05,16.05,0,0,0,3.1-1.24c-.3-1.23-3.6-6.49-4.7-1.85,1.7.62,1.6,2.26-.5,3.09l1.6.31c-1,3.09-1.6,2.57-4.7,2.88,1-.93-2-1.34-2.2-2.57-.2-.83,1.6-1.55,1.4-2.58,0,0,1.1,1.34,1.6,0-.2.52,1.1-1.75,0-1.24a.57.57,0,0,1-.7.42c.3-1.65-1.9-1.45-2.7-1-1.3.61-.8,2.78-1.5,3.81-.9-.62-1.7-3.81-3.3-1.75-.8,1,1.9,3.29.8,5.35.7.42,3.7-1.85,3.7,0-2,.21-6.7,1.86-6.5-.72-.4.11-.8.11-1.2.21,0-1.44,3.5-1.13-.1-1.44a3.72,3.72,0,0,1,3.1-.93,7.4,7.4,0,0,0-3-2.27s2.4-1.34.8-1.54c-.9-.11-1.1,0-1.1.1l-.3-.31c-2.7.41-.9,1.86-1.8,2.78l-.1.11.1-.11a5.85,5.85,0,0,0-1.3-.2c1-4-5.9-1.75-4.6,2.88-4.3.72-8.6-.2-12.8-.1-1.6,0-14.8-.83-14.3.31,1.2,2.37,11.3-.21,13.5.92,4.6,2.27-5.3,3.2-7.4,3.3-3.6.1-7.6.52-11.7.62h-8.7A31.6,31.6,0,0,1,881.1,19c0-.31,8.1-1.23,9-1.34l-8.8-.41c2.6-2.06,4.5-3.6-.7-4-7.1-.51-14.8,1.76-22.1,1.65S844.3,13,837.2,12.7c-2-.1-3.2-.1-4.9-1-1-.62-1.8-2-2.7-2.37-1.9-.93-6.7-1.24-8.5-.21,1,.52,2,1,3,1.45-1.6,1.75-3-.62-4.6-.83,1.7.72-5.1.52-5.9.41a69.09,69.09,0,0,0-9.2-.41c-1,0-.3,1.13-1.3.83-.5-.11-.9-.93-1.4-1a31,31,0,0,1-5.3-1.45c-4.4-1.64-7.1-3.4-11.6-3.81-1.3-.1-6-.31-3.9,1.86.1.1,7.4.51,6,2.06-.9.92-4.4-.52-4.6,1.23.2-.1,1.6,1.14,2.2.93a1.12,1.12,0,0,0-1.3.82c-2.7-1.13,2.7-.72-2.7-1.13-.3-3.09-7.4-2.37-9.8-2.88,1.8-.62,1.6-2.17,4-2.06-1.6-1.24-3.5-.83-5.3-.83-.8,0-5.1-.93-5.5-.93-4,.73,5.2,1.86,5.2,3.4-.3,0-5.6-.51-4.7.62,1.6,2.06,3.5,1.24,5.7,2.06-2.4,1.75-5.9-.62-8.5-.31a14.87,14.87,0,0,1,1.8,1.65c-2.5,1.34-5.3-1.54-7.8-1.85l.9-.72c-.7-.11-3.3-1.75-3.8-.42a4.83,4.83,0,0,0,2.4.62c.3,1.24-23.4,0-25.6-.41-1-.21-.5-.82-2-.93a33,33,0,0,0-4.4.52A30.88,30.88,0,0,1,716.2,7c-1.2-.2-14.5-1-14.4.83,0,.72,1.8.72,1.7,1.54-.2,1.86-7.5,1.14-8.4.83-.4-.62,2.3-1.14,2.4-1.14-9.3.42-17.7-3.91-26.8-3.91-7.6,0-16.9-1.65-24.3.93l5.5.31c-3.5.1-3.7,1.75-6.5,2.57a11.54,11.54,0,0,1-6.9-1c-.7-.41.4-1.44.2-2.06-4.2-.1-8.9,1.24-13,.21A1.49,1.49,0,0,0,627,5.8c0-.31-3.6-.93-2.7-.93-5-.41-8.9,1.65-13.7,2.37,1.3,3.3,7.1,2.57,9.6,2.27a14.78,14.78,0,0,0-1.4.92c2.2-.1,5.5-.72,6.1,1.44,3.2-1,9.9-.92,12.6-.51-5.9.31-11.3,3.3-17.3,2.88l3.1.73c-1.4,0-11.9-.31-7.9-3.51-4.1-.51-2.6-1.23-5.8-3.71-1.4-1-5-1.85-6.8-.41a9,9,0,0,0,2.1,1.34c-1.2,1.86-2-.51-3.3-.62,2,1.14-5.8.42-5.4.52-1-.1-6.3-.83-6.1.93a33.84,33.84,0,0,1-3.3-1.65,41.08,41.08,0,0,0-3.5-2.17c-1-.41-2-.82-2.8-1.13a10.83,10.83,0,0,0-3-.82c-1.1-.11-3.1-.72-3.9.41-1.1,1.65,1.4,1.34,1.8,1.54.7.62,3.4-.2,2.5,2-.3.83-2.9-.51-3.2,1.13.1,0,1,1.14,1.5.93-1.8.41-.4,1.55-.3,2.58-3.9.92-1.2-3.2-3.7-4.95-1.4-.92-4.1.31-5.7.11-4.4-.52-4.7-.93-.6,1.33-1.8,1.65-4.2-.72-6.2-.3.5.41.7,1.13,1.2,1.64-1.9,1.34-3.8-1.64-5.5-1.95l.7-.72c-.6-.11-2.2-1.86-2.7-.52a2.68,2.68,0,0,0,1.7.62c.3,2.57-7.6-1.86-6.6,1.85-2.6-.51-6.6-.31-9-1.13-2-.72-1.6-2-3.1-2.78-4.1-2.27-12.7.41-17.4.72.9,1.24,5.7,5.15,6.9,3.81s-2.4-1.54-2-2.27c-.2-1.33,3.2.31,3,2,1-2.26,4.8.21,6.3.83a13.41,13.41,0,0,1-1.8,2.36c-1.3.11-1.1-2-.9-3a1.12,1.12,0,0,0-1.2,1.23.64.64,0,0,1-.7-.72c-.3.72-2.5,0-1.6,1.86l1.2-.11c.5,1.65-1.8.83-1.7.83-.7.31-.7.2-1,.82-.1.1,1.4-1,.9,0a1.1,1.1,0,0,1-.8.31c.2.52.6.72,1.3.62-1.6.72-1,.31-2.1-.1.1-.93.7-3.09-.1-3.92-1.8,2.89-4.2,2.37-7.3,1.86.7.1-1.8-1.14-2.2-1.24-.7-.72-1.8-2.16-1.9-2.16-1,2.78-.4.92-3.2-.11-.9-.31-3.8-1.54-4.2-.2-.5,1.65,4.9,2.47,5.9,2.88-2.9.41-1.7-.31.2,1.24-1.1.51-2.6-2.17-3,.72-.6-6.49-2.3,1.44-2.4,1.54.3-.1-2.3-4.94-3.4-5.15-1.5-.2-2.4,4-2.5.72-.2-.1-2.6-1-1.4-1.13-.7-.62-1.2,2.16-1.3,2.27-1.3.41-3.3.1-5-.21a7.72,7.72,0,0,0-1.5-.2h-.1a44.23,44.23,0,0,0-7.4-.83c-1.8.1-3.4,1.13-4.8.93-3.2-.62-7.4-5.25-11.1-1.86a1.75,1.75,0,0,0-.2,2.06c-1.3.93-3.4,1.76-5.2.73a1.75,1.75,0,0,1,1.5-1.14c-5.9.31-10.6-3.5-16.1-4.22-4.4-.52-11.5-1.75-15.6.31l3.4.51c-2.9-.1-1.9,1.86-4,2.37-3.6.93-3.7-1.34-4.1-3.29-2.5-.31-5.7.82-8.1-.31,2-.11-.7-1.24-.9-1.24-.6-.1-5.5-.72-5.9-.41a1.48,1.48,0,0,1,.3-.93s-5-1-5.1-1A56.33,56.33,0,0,1,400,1.68c-.4-.11-1.4-1.34-1.9-1.14-1.5.62-1.1,2.78-2.4,3.3-2.5,1-.3-3-.9-3.81-.3-.41-1.9,3.81-2.7,2.47a.92.92,0,0,1-.1.72l1.4-.1c0,.93-1.6,4-2.5,4a6.57,6.57,0,0,1-.1-2.79c-.7-.92-1.2-.92-1.5.11-1.5-.31-1.2,0-1.6.72-1.6.72-1.3-4.33-2.4-3.61.6.42,1,4.23,1.1,5.05-2.1-.51-3.5-.93-4-2.78-1.6,1-2.7-1.13-4-.93-1.9.21-1.5,1.24-2.8,2.48-1.4-2.79-7.3.1-8.9,1,.5-1.55-.9-1.14.2-2.17-2,.41-4.4-2.37-4.8,1.34,3.3.21-.3,3.61-3.5,1.86,2.4-1,4.7-3.71.2-3.1-2.8.31-6.1,2.27-8.4,2.48l4.7-.11c.1.93-.4,1.45-1.6,1.55-.4-1.85-1.6-.31-2.4-.1-.5.2-.5.51,0,.92a2.64,2.64,0,0,1-3.2-.31l1.1-1a7.65,7.65,0,0,0-2-.61c-1.9,1.13-12.4-.42-12.5,1.44-4.1.41-4-4.33-7.6-3.81a1.92,1.92,0,0,1,1.4.62c0,.41-1.2.2-1.4.61.3-.2,2.4,2.58,2.5,2.68.8,1.44-.1,2.37,1.3,3.5,2.6,2.17,8.5-1.64,9.5,2.06.2-.51-.3-.41,0-.92.2.2.5.2.8-.11,0,.11-.3,1-.1,1.24a56.41,56.41,0,0,1-14.3,2.16c2.4-1.23-5.1-2.78-5.8-3a4.82,4.82,0,0,1,1.3-.11,3,3,0,0,1-1.7-1.23c-.7-.93-2.2-1.55-2-3,2.1.31.2-.52,1.7-.72l-4.4-.52.2-.92c-5.3.82-9.5-1.75-14.6-1a46.27,46.27,0,0,0-6.7,1c-.7.2-7.2,2.37-5.1.51a156.5,156.5,0,0,1-37.9,3.4c3.5-.21,6.9-1.44,10.4-1.54-.7,0-1.4-.11-2.1-.11,1.9-.62-1.1-1.23-1-1.85,0-.21.9-.41,1.7-.52-4.3-.31-14.3-2.78-16,1.24.9-.21,5.8.21,5.6,1.54l-5.9,1.65,5.8.11c-1.2,1.54-3.3,3.09,0,3.81-5.2,1.75-10,1.13-15.2-.41,3.8-1.14-7.8-1.14-7.8-1.14-3-2.37,3.4-3.19,2.6-3.91,2-.31,4.9,0,7.3-.41-1.3-1.45-5.5-1.14-7.4-1.55a13.33,13.33,0,0,0-9.5,1.44c-2.2,1.34.8,2-2.7,2.58-1.5.31-3.5-1.55-5-1.75-2.6-.42-5.1.61-7.6,1,2,1,4.3,1.34,6.3,2.26-5,1.14-28,7.63-30.2,2.58,4.2-.83,8.3.31,12.7-.72s8.4-2.27,12.9-2.06a73.38,73.38,0,0,0-11.6-1.86l3.9-1c-2.4-1.65-5,.93-7.5.11-.2-.11,1.1-.62.4-.83-4,1.86-7-2.88-10.5-4.32-4-1.55-10.7-2.17-14.9-.11a36.18,36.18,0,0,0,4.6,1c-2,2-4.5-.31-6.8-.2,2.1.41-1.2,1.23-1.7,1.34-1.7.41-3.9-.21-5.7-.21a109.68,109.68,0,0,0-11.6.41c-2.3.21-4,1.24-5.6,1.13-1.3-.1-2.2-1.44-3.5-1.64-1.9-.31-3.9.41-6.1-.11-1.7-.41-3.3-1.23-5-1.64-2.4-.52-4.2.3-6.4.3-1.5-.1-4.5-1.23-6.7-1.13-1.2,0-6.2-.21-5.3,2.06s8.3-1.85,9.9,1.44c.3.62-6.6.62-6.6,2,.5-.21,2.6.93,3.3.72-2.6.52-1.5,1.13-.3,2.16-3.3-.3-3.1-.1-5.4-1.75.3-1.13-.1-1.64-1.1-1.75a6.68,6.68,0,0,0-2.8-.72c-3.6-.31-7.1,1.13-10.6.93-.9,0-7.8-2-8.2.1-.4,1.86,6.6,1.24,7.4,1.34-3.6,2.06-8.6-.1-12.5.41,1,.31,1.9,1.14,2.9,1.44-3.7,1.55-7.9-1.13-11.7-1.13L72,11c-1.1,0-4.9-1.75-5.5-.11a10.53,10.53,0,0,0,3.6.42c.5,1-14.6.61-12.8,2.78-4.9-.11-9.9-.41-14.8-.21-2.4.1-4.6.41-6.8-.1a19.85,19.85,0,0,1-3.2-1.44c-4-1.14-9,.1-13.5.2-5.3.21-12.6-.62-17.4,2.06A4,4,0,0,1,0,15v8H1000V13.93Z"></path>
            </g>
        </g>
    </g>
</svg>