 <svg version="1.1" id="Layer_1" fill="white" xmlns="http://www.w3.org/2000/svg" xmlns:xlink="http://www.w3.org/1999/xlink" x="0px" y="0px" viewBox="0 0 1000 99.4" style="enable-background:new 0 0 1000 99.4;" xml:space="preserve" data-position="top" data-ct="37940" decoration-type="Mini Waves 02" class="svg-shape-top" width="100%" preserveAspectRatio="none" data-css="tve-u-171ebfa668d">
	<path d="M57.5,97.3L57.5,97.3c23.2-5.5,30.6-33.6,51.8-40.1c17-5.3,41,22.6,53.1,7.6l0,0c6.6-8.3,18.3-15,27.8-12.3
		c34.7,9.9,51.5,57.3,86.8,44.8l0,0c24.4-8.6,31-38.8,54.1-45.3c20.3-5.7,39.2,18,61.3,12.8l0,0c15.2-3.6,24.4-25,38.5-21.5
		c39,9.9,51.6,67.6,90,54l0,0c22.4-7.9,30.6-33.2,51.6-39.8c16.8-5.2,34.6,13.6,52.5,7.3l0,0c10.2-3.6,18.6-15.6,28.5-12.8
		c35,9.9,50.4,53.9,87,45.3l0,0c22.4-5.3,30.4-31.5,50.7-38.1c15.6-5.1,38.1,19.3,49.1,5.6l0,0c6.6-8.3,18.3-15,27.8-12.3
		c34.5,9.9,51.3,57.3,86.5,44.8l0,0c21.1-7.4,28.8-30.8,45.4-41.3V0H0v70.5C18.4,79.1,35.2,102.6,57.5,97.3z">
	</path>
</svg> 